<svg xmlns="http://www.w3.org/2000/svg" viewBox="0 0 212.06 73.31"><defs><style>.cls-1{fill:#fff;}.cls-2{fill:#cecece;}</style></defs><title>Asset 3</title><g id="Layer_2" data-name="Layer 2"><g id="Layer_1-2" data-name="Layer 1"><path class="cls-1" d="M9.79,43.38h0v.95a10.46,10.46,0,0,0-2,.16,1.36,1.36,0,0,0-1.13.92A4.7,4.7,0,0,0,7.1,48.1h0l4.68,13.39-.32,0,6.61-18.24.9.35L10.74,66.75H10L2.6,46.85a4.11,4.11,0,0,0-1.41-2.16A2.68,2.68,0,0,0,0,44.33H0v-.95q.9.13,1.86.21c.65,0,1.34.07,2.09.07H4c.93,0,1.91,0,3-.1S8.89,43.45,9.79,43.38Zm24.68,0h0v.9a2.94,2.94,0,0,0-1.6.74,5.68,5.68,0,0,0-1.32,2.41h0L25,66.75h-.76L17,48.37l1-5.16h1l7,18.55-.36.27L30.2,48.51c.51-1.5.54-2.55.11-3.15s-1.44-1-3-1.08h0v-.9c.54,0,1,.06,1.39.07l1.15,0,1.23,0h0c.69,0,1.31,0,1.87,0Zm12-.62h0a8,8,0,0,1,6.18,2.4q2.22,2.4,2.22,7.48H39l0-.85H50.51a14.74,14.74,0,0,0-.36-4.07,7.12,7.12,0,0,0-1.41-3,3.15,3.15,0,0,0-2.5-1.12h0a4.57,4.57,0,0,0-3.66,2.07c-1.06,1.38-1.7,3.56-1.91,6.56h0l.14.18c-.07.45-.11.94-.14,1.48s-.05,1.08-.05,1.62h0a12.79,12.79,0,0,0,1,5.26,8,8,0,0,0,2.59,3.34,5.54,5.54,0,0,0,3.3,1.15h0a7.31,7.31,0,0,0,3.73-1,7.49,7.49,0,0,0,2.87-3.5h0l.9.35A9.23,9.23,0,0,1,53.39,64a8.47,8.47,0,0,1-6.79,3.14h0a10,10,0,0,1-5.55-1.48,9.73,9.73,0,0,1-3.55-4.1,14.15,14.15,0,0,1-1.23-6h0a16.77,16.77,0,0,1,1.25-6.81,10.18,10.18,0,0,1,3.55-4.41A9.34,9.34,0,0,1,46.42,42.76Zm25.17,0h0a7.52,7.52,0,0,1,6.11,3c1.62,2,2.42,5.08,2.42,9.18h0a14.87,14.87,0,0,1-1.37,6.77,9.53,9.53,0,0,1-3.66,4.07,9.75,9.75,0,0,1-5,1.34h0a8.15,8.15,0,0,1-4.34-1.28,7.65,7.65,0,0,1-3.11-3.79h0l.89.5a7.3,7.3,0,0,0,2.79,2.66,7.19,7.19,0,0,0,3.41.88h0a4.82,4.82,0,0,0,4.51-2.72q1.52-2.71,1.51-8.43h0a26.45,26.45,0,0,0-.58-6.06,7.42,7.42,0,0,0-1.8-3.62,4.24,4.24,0,0,0-3.09-1.18h0A5.27,5.27,0,0,0,66.44,46a9.2,9.2,0,0,0-2.18,5.46h0l-.54-.63a9.73,9.73,0,0,1,2.67-5.94A7.24,7.24,0,0,1,71.59,42.76Zm-7-11.41h0V64.19l-1.18,1-1.19,1c-.4.33-.8.68-1.22,1h0l-.77-.32a6.3,6.3,0,0,0,.25-1.28,11.43,11.43,0,0,0,.07-1.32h0V36.74a5.06,5.06,0,0,0-.72-3,3.2,3.2,0,0,0-2.7-1h0v-1A26.86,26.86,0,0,0,59.9,32h0a18.07,18.07,0,0,0,2.49-.16A13.06,13.06,0,0,0,64.57,31.35ZM92.44,42.76h0a7.55,7.55,0,0,1,4.62,1.36,4.44,4.44,0,0,1,1.85,3.76h0a5.64,5.64,0,0,1-1,3.21,9.5,9.5,0,0,1-2.5,2.52,14.38,14.38,0,0,1-3.23,1.68h0a11.62,11.62,0,0,1,4,.79,7.31,7.31,0,0,1,3.1,2.23,5.81,5.81,0,0,1,1.22,3.82h0A7.74,7.74,0,0,1,99,66.75a12.82,12.82,0,0,1-3.93,3.53,21.34,21.34,0,0,1-5.4,2.25,22.55,22.55,0,0,1-5.81.78h0V72.5a15.69,15.69,0,0,0,4.49-.74,13.57,13.57,0,0,0,4-2,9.91,9.91,0,0,0,2.84-3.24,9,9,0,0,0,1.06-4.4h0A7.13,7.13,0,0,0,95,57.75a4.57,4.57,0,0,0-3.49-1.91h0l-1.19.46a2.5,2.5,0,0,1-.92.21h0c-.48,0-.72-.2-.72-.59h0a.71.71,0,0,1,.36-.63,1.49,1.49,0,0,1,.81-.22h0a4.71,4.71,0,0,1,.74.06c.25,0,.53.08.83.12h0a8.6,8.6,0,0,0,2.65-3.08,7.8,7.8,0,0,0,.81-3.39h0a4,4,0,0,0-1-3.08,4.06,4.06,0,0,0-2.86-1h0a6.16,6.16,0,0,0-3.39,1,7.44,7.44,0,0,0-2.58,3h0l-.77-.36A11.81,11.81,0,0,1,86,45.61a8.37,8.37,0,0,1,2.68-2.07A8.56,8.56,0,0,1,92.44,42.76ZM111,35.92h0v7.51h6.65v.9H111V61.71a4.4,4.4,0,0,0,.77,3,2.64,2.64,0,0,0,2.1.85h0a3.05,3.05,0,0,0,2.34-1.09A9.45,9.45,0,0,0,118,60.73h0l.9.23a10.31,10.31,0,0,1-1.77,4.4A4.77,4.77,0,0,1,113,67.15h0a6.94,6.94,0,0,1-2.51-.38,5.09,5.09,0,0,1-1.75-1.1h0a5.52,5.52,0,0,1-1.37-2.47,15.09,15.09,0,0,1-.39-3.82h0V44.33h-4.31v-.9H107V36.55a18.5,18.5,0,0,0,2.16-.18A7.7,7.7,0,0,0,111,35.92Zm29.07,7h0V61.68a4.82,4.82,0,0,0,.75,3,3.16,3.16,0,0,0,2.67,1h0v.94c-.93-.09-1.86-.14-2.78-.14h0a22,22,0,0,0-2.5.14,9.63,9.63,0,0,0-2.19.5h0V61.76a8,8,0,0,1-3.16,4.16,8,8,0,0,1-4.2,1.23h0A7.66,7.66,0,0,1,126,66.7,5,5,0,0,1,124,65.45h0a4.8,4.8,0,0,1-1.17-2.34,17,17,0,0,1-.31-3.55h0V48.28a5,5,0,0,0-.72-3,3.21,3.21,0,0,0-2.7-1h0v-.95c1,.09,1.88.14,2.78.14h0a20,20,0,0,0,2.5-.15,13.23,13.23,0,0,0,2.18-.48h0V60.55a16.85,16.85,0,0,0,.18,2.56,3.3,3.3,0,0,0,.9,1.89,3.19,3.19,0,0,0,2.33.72h0a5.15,5.15,0,0,0,4.36-2.36,9.57,9.57,0,0,0,1.7-5.77h0V48.28a5,5,0,0,0-.71-3,3.19,3.19,0,0,0-2.69-1h0v-.95c1,.09,1.88.14,2.78.14h0a20.11,20.11,0,0,0,2.5-.15A13.1,13.1,0,0,0,140.11,42.89Zm20.81-.13h0a7.85,7.85,0,0,1,2.85.45,5.12,5.12,0,0,1,1.91,1.25h0a5.1,5.1,0,0,1,1.21,2.25,14.59,14.59,0,0,1,.37,3.64h0v12a3.3,3.3,0,0,0,.78,2.56,4.05,4.05,0,0,0,2.63.67h0v1l-2.34-.12c-1.05,0-2.06-.06-3.05-.06h0c-1,0-2,0-2.9.06l-2.14.12h0v-1a3.19,3.19,0,0,0,2.3-.67,3.64,3.64,0,0,0,.67-2.56h0v-13A13.57,13.57,0,0,0,163,46.8a3.36,3.36,0,0,0-1-1.89,3.49,3.49,0,0,0-2.41-.72h0A5.42,5.42,0,0,0,155,46.55a9.58,9.58,0,0,0-1.73,5.82h0v10a3.64,3.64,0,0,0,.67,2.56,3.19,3.19,0,0,0,2.3.67h0v1l-2.14-.12c-.94,0-1.91-.06-2.9-.06h0c-1,0-2,0-3.05.06l-2.34.12h0v-1a4.05,4.05,0,0,0,2.63-.67,3.3,3.3,0,0,0,.78-2.56h0V48.28a5,5,0,0,0-.72-3,3.19,3.19,0,0,0-2.69-1h0v-.95c1,.09,1.89.14,2.79.14h0a19.83,19.83,0,0,0,2.49-.15,13.23,13.23,0,0,0,2.18-.48h0V48.2A7.86,7.86,0,0,1,156.54,44,8.64,8.64,0,0,1,160.92,42.76Zm22.65,0h0a8,8,0,0,1,6.18,2.4q2.22,2.4,2.22,7.48H176.11l-.05-.85h11.59a14.75,14.75,0,0,0-.35-4.07,7,7,0,0,0-1.42-3,3.12,3.12,0,0,0-2.5-1.12h0a4.6,4.6,0,0,0-3.66,2.07c-1.06,1.38-1.7,3.56-1.91,6.56h0l.14.18c-.06.45-.11.94-.14,1.48s0,1.08,0,1.62h0a12.79,12.79,0,0,0,1,5.26,8,8,0,0,0,2.58,3.34,5.54,5.54,0,0,0,3.31,1.15h0a7.27,7.27,0,0,0,3.72-1,7.56,7.56,0,0,0,2.88-3.5h0l.9.35A9.44,9.44,0,0,1,190.54,64a8.47,8.47,0,0,1-6.79,3.14h0a10,10,0,0,1-5.55-1.48,9.6,9.6,0,0,1-3.55-4.1,14,14,0,0,1-1.24-6h0a16.76,16.76,0,0,1,1.26-6.81,10.11,10.11,0,0,1,3.55-4.41A9.32,9.32,0,0,1,183.57,42.76Zm19.85,0h0a7.31,7.31,0,0,1,3.07.58,9.23,9.23,0,0,1,1.84,1.07h0c1,.82,1.59.28,1.8-1.61h1c-.06.84-.11,1.84-.13,3S211,48.5,211,50.44h-1A13.75,13.75,0,0,0,209,47.2a6.35,6.35,0,0,0-1.91-2.58,5.07,5.07,0,0,0-3.27-1h0a3.94,3.94,0,0,0-2.63.88,3.13,3.13,0,0,0-1.06,2.58h0a3.55,3.55,0,0,0,.8,2.32,9.35,9.35,0,0,0,2.12,1.79L205.9,53h0a30.14,30.14,0,0,1,4.36,3.37,5.91,5.91,0,0,1,1.8,4.49h0A5.5,5.5,0,0,1,211,64.33a6.61,6.61,0,0,1-2.81,2.1,9.78,9.78,0,0,1-3.8.72h0a10,10,0,0,1-1.86-.16,8,8,0,0,1-1.69-.46h0a7.69,7.69,0,0,1-.92-.55,11.3,11.3,0,0,1-.92-.67h0a.53.53,0,0,0-.81,0,3,3,0,0,0-.54,1.51h-1c.06-1,.1-2.14.13-3.52s.05-3.2.05-5.47h1a26,26,0,0,0,.9,4.4,6,6,0,0,0,1.84,2.94,5.33,5.33,0,0,0,3.51,1.06h0a4.56,4.56,0,0,0,2.67-1A3.77,3.77,0,0,0,208.06,62h0a4.07,4.07,0,0,0-1.44-3.23A28.55,28.55,0,0,0,203,56.1h0c-1.08-.69-2.09-1.38-3-2.06a9.34,9.34,0,0,1-2.28-2.34,5.48,5.48,0,0,1-.88-3.15h0a5.46,5.46,0,0,1,.92-3.3,5.29,5.29,0,0,1,2.45-1.88A8.68,8.68,0,0,1,203.42,42.76Z"/><path class="cls-1" d="M106,25.86c3.45,0,6.24-.34,6.24-.76V.76c0-.42-2.79-.76-6.24-.76s-6.23.34-6.23.76V25.11C99.8,25.53,102.59,25.86,106,25.86Z"/><path class="cls-1" d="M81.08,22c3.45,0,6.24-.34,6.24-.76V4.66c0-.42-2.79-.76-6.23-.76s-6.24.35-6.24.76V21.22C74.85,21.64,77.64,22,81.08,22Z"/><path class="cls-1" d="M56.13,18.54c3.45,0,6.24-.35,6.24-.76V8.12c0-.42-2.79-.76-6.24-.75s-6.24.34-6.24.76v9.65C49.9,18.2,52.69,18.54,56.13,18.54Z"/><path class="cls-1" d="M31.19,16.69c3.44,0,6.23-.35,6.23-.76V10c0-.42-2.79-.76-6.24-.76S25,9.57,25,10v5.94C25,16.35,27.74,16.69,31.19,16.69Z"/><path class="cls-1" d="M6.24,15.18c3.44,0,6.24-.34,6.24-.76V11.51c0-.42-2.79-.75-6.23-.75S0,11.1,0,11.52v2.91C0,14.84,2.79,15.18,6.24,15.18Z"/><path class="cls-1" d="M131,22c3.44,0,6.24-.34,6.24-.76V4.64c0-.42-2.79-.76-6.24-.75s-6.23.34-6.23.76V21.2C124.74,21.62,127.54,22,131,22Z"/><path class="cls-1" d="M155.93,18.5c3.44,0,6.23-.34,6.23-.76V8.08c0-.42-2.79-.75-6.24-.75s-6.23.34-6.23.76v9.65C149.69,18.16,152.48,18.5,155.93,18.5Z"/><path class="cls-1" d="M180.87,16.63c3.45,0,6.24-.34,6.24-.76V9.93c0-.42-2.8-.75-6.24-.75s-6.24.34-6.24.76v5.94C174.64,16.29,177.43,16.63,180.87,16.63Z"/><path class="cls-1" d="M205.82,15.11c3.44,0,6.24-.35,6.24-.76V11.44c0-.42-2.8-.76-6.24-.76s-6.24.34-6.24.76v2.91C199.58,14.77,202.38,15.11,205.82,15.11Z"/><path class="cls-2" d="M112.26.76c0-.42-2.79-.76-6.24-.76s-6.23.34-6.23.76V12.93h12.48Z"/><path class="cls-2" d="M87.31,4.66c0-.42-2.79-.76-6.23-.76s-6.24.35-6.24.76v8.28H87.32Z"/><path class="cls-2" d="M62.37,8.12c0-.42-2.79-.76-6.24-.75s-6.24.34-6.24.76V13H62.37Z"/><path class="cls-2" d="M37.42,10c0-.42-2.79-.76-6.24-.76S25,9.57,25,10v3H37.42Z"/><path class="cls-2" d="M12.47,13V11.51c0-.42-2.79-.75-6.23-.75S0,11.1,0,11.52V13Z"/><path class="cls-2" d="M137.21,4.64c0-.42-2.79-.76-6.24-.76s-6.23.35-6.23.77v8.27h12.47Z"/><path class="cls-2" d="M162.16,8.08c0-.42-2.79-.75-6.24-.75s-6.24.34-6.24.76v4.83h12.47Z"/><path class="cls-2" d="M187.11,9.93c0-.42-2.8-.75-6.24-.75s-6.24.34-6.24.76v3h12.48Z"/><path class="cls-2" d="M212.06,11.44c0-.42-2.8-.76-6.24-.76s-6.24.34-6.24.76V12.9h12.48Z"/></g></g></svg>